<mxfile host="801db045-dae4-4616-af2a-9e981d30b268" modified="2020-09-16T08:50:08.057Z" agent="5.0 (Macintosh; Intel Mac OS X 10_15_4) AppleWebKit/537.36 (KHTML, like Gecko) Code/1.49.0 Chrome/83.0.4103.122 Electron/9.2.1 Safari/537.36" etag="JEuFKKf3WCFTN5BTFyuR" version="13.1.3">
    <diagram id="6hGFLwfOUW9BJ-s0fimq" name="Page-1">
        <mxGraphModel dx="475" dy="529" grid="1" gridSize="10" guides="1" tooltips="1" connect="1" arrows="1" fold="1" page="0" pageScale="1" pageWidth="827" pageHeight="1169" math="0" shadow="0">
            <root>
                <mxCell id="0"/>
                <mxCell id="1" parent="0"/>
                <mxCell id="4" style="edgeStyle=orthogonalEdgeStyle;rounded=0;orthogonalLoop=1;jettySize=auto;html=1;exitX=0.25;exitY=1;exitDx=0;exitDy=0;entryX=0;entryY=0.5;entryDx=0;entryDy=0;fontColor=#FFFFFF;" edge="1" parent="1" source="2" target="3">
                    <mxGeometry relative="1" as="geometry"/>
                </mxCell>
                <mxCell id="2" value="&lt;font&gt;init.js&amp;nbsp; &amp;nbsp; vm.$&lt;span style=&quot;background-color: rgb(30 , 30 , 30) ; font-family: &amp;quot;menlo&amp;quot; , &amp;quot;monaco&amp;quot; , &amp;quot;courier new&amp;quot; , monospace ; font-size: 14px&quot;&gt;mount&lt;/span&gt;&lt;/font&gt;" style="html=1;fillColor=none;fontColor=#FFFFFF;" vertex="1" parent="1">
                    <mxGeometry x="10" y="20" width="240" height="50" as="geometry"/>
                </mxCell>
                <mxCell id="6" value="" style="edgeStyle=orthogonalEdgeStyle;rounded=0;orthogonalLoop=1;jettySize=auto;html=1;fontColor=#FFFFFF;" edge="1" parent="1" source="3" target="5">
                    <mxGeometry relative="1" as="geometry"/>
                </mxCell>
                <mxCell id="3" value="platforms/web/entry-runtime-with-compiler&amp;nbsp; $mount" style="html=1;fillColor=none;fontColor=#FFFFFF;whiteSpace=wrap;" vertex="1" parent="1">
                    <mxGeometry x="174" y="210" width="240" height="50" as="geometry"/>
                </mxCell>
                <mxCell id="13" value="" style="edgeStyle=orthogonalEdgeStyle;rounded=0;orthogonalLoop=1;jettySize=auto;html=1;fontColor=#FFFFFF;" edge="1" parent="1" source="5" target="12">
                    <mxGeometry relative="1" as="geometry"/>
                </mxCell>
                <mxCell id="5" value="/Users/wuxing/Documents/liyong/vue/src/compiler/to-function.js&lt;br&gt;&lt;br&gt;createCompileToFunctionFn" style="html=1;fillColor=none;fontColor=#FFFFFF;whiteSpace=wrap;labelBorderColor=none;" vertex="1" parent="1">
                    <mxGeometry x="151" y="370" width="286" height="80" as="geometry"/>
                </mxCell>
                <mxCell id="20" value="" style="edgeStyle=orthogonalEdgeStyle;rounded=0;orthogonalLoop=1;jettySize=auto;html=1;fontColor=#FFFFFF;" edge="1" parent="1" source="12" target="19">
                    <mxGeometry relative="1" as="geometry"/>
                </mxCell>
                <mxCell id="12" value="/compiler/create-compiler.js" style="html=1;fillColor=none;fontColor=#FFFFFF;whiteSpace=wrap;labelBorderColor=none;" vertex="1" parent="1">
                    <mxGeometry x="151" y="530" width="286" height="80" as="geometry"/>
                </mxCell>
                <mxCell id="23" value="" style="edgeStyle=orthogonalEdgeStyle;rounded=0;orthogonalLoop=1;jettySize=auto;html=1;fontColor=#FFFFFF;" edge="1" parent="1" source="19" target="22">
                    <mxGeometry relative="1" as="geometry"/>
                </mxCell>
                <mxCell id="19" value="/vue/src/compiler/index.js&amp;nbsp; -&amp;nbsp;baseCompile" style="html=1;fillColor=none;fontColor=#FFFFFF;whiteSpace=wrap;labelBorderColor=none;" vertex="1" parent="1">
                    <mxGeometry x="151" y="690" width="286" height="80" as="geometry"/>
                </mxCell>
                <mxCell id="29" value="" style="edgeStyle=orthogonalEdgeStyle;rounded=0;orthogonalLoop=1;jettySize=auto;html=1;fontColor=#FFFFFF;" edge="1" parent="1" source="22" target="28">
                    <mxGeometry relative="1" as="geometry"/>
                </mxCell>
                <mxCell id="22" value="/vue/src/compiler/index.js&amp;nbsp; -&amp;nbsp;baseCompile" style="html=1;fillColor=none;fontColor=#FFFFFF;whiteSpace=wrap;labelBorderColor=none;" vertex="1" parent="1">
                    <mxGeometry x="680" y="670" width="286" height="80" as="geometry"/>
                </mxCell>
                <mxCell id="31" value="" style="edgeStyle=orthogonalEdgeStyle;rounded=0;orthogonalLoop=1;jettySize=auto;html=1;fontColor=#FFFFFF;" edge="1" parent="1" source="28" target="30">
                    <mxGeometry relative="1" as="geometry"/>
                </mxCell>
                <mxCell id="28" value="/src/compiler/parser/index.js&amp;nbsp; &amp;nbsp;parse" style="html=1;fillColor=none;fontColor=#FFFFFF;whiteSpace=wrap;labelBorderColor=none;" vertex="1" parent="1">
                    <mxGeometry x="1190" y="670" width="286" height="80" as="geometry"/>
                </mxCell>
                <mxCell id="30" value="/compiler/parser/html-parser.js&amp;nbsp; &amp;nbsp;&lt;br&gt;parseHTML" style="html=1;fillColor=none;fontColor=#FFFFFF;whiteSpace=wrap;labelBorderColor=none;" vertex="1" parent="1">
                    <mxGeometry x="1680" y="670" width="286" height="80" as="geometry"/>
                </mxCell>
                <mxCell id="7" value="判断是否有render方法" style="text;html=1;align=center;verticalAlign=middle;resizable=0;points=[];autosize=1;fontColor=#FFFFFF;" vertex="1" parent="1">
                    <mxGeometry x="436" y="218" width="130" height="20" as="geometry"/>
                </mxCell>
                <mxCell id="8" value="然后判断是否有template" style="text;html=1;align=center;verticalAlign=middle;resizable=0;points=[];autosize=1;fontColor=#FFFFFF;" vertex="1" parent="1">
                    <mxGeometry x="427" y="250" width="150" height="20" as="geometry"/>
                </mxCell>
                <mxCell id="9" value="然后获取el 的outerHTML" style="text;html=1;align=center;verticalAlign=middle;resizable=0;points=[];autosize=1;fontColor=#FFFFFF;" vertex="1" parent="1">
                    <mxGeometry x="427" y="280" width="150" height="20" as="geometry"/>
                </mxCell>
                <mxCell id="14" value="判断是否有缓存，如果没有，则 compile&amp;nbsp;&lt;br&gt;" style="text;html=1;align=center;verticalAlign=middle;resizable=0;points=[];autosize=1;fontColor=#FFFFFF;" vertex="1" parent="1">
                    <mxGeometry x="460" y="400" width="230" height="20" as="geometry"/>
                </mxCell>
                <mxCell id="15" value="判断是否有缓存，如果没有，则 compile&amp;nbsp;&lt;br&gt;" style="text;html=1;align=center;verticalAlign=middle;resizable=0;points=[];autosize=1;fontColor=#FFFFFF;" vertex="1" parent="1">
                    <mxGeometry x="460" y="550" width="230" height="20" as="geometry"/>
                </mxCell>
                <mxCell id="16" value="合并自定义选项" style="text;html=1;align=center;verticalAlign=middle;resizable=0;points=[];autosize=1;fontColor=#FFFFFF;" vertex="1" parent="1">
                    <mxGeometry x="525" y="575" width="100" height="20" as="geometry"/>
                </mxCell>
                <mxCell id="18" value="合并自定义指令" style="text;html=1;align=center;verticalAlign=middle;resizable=0;points=[];autosize=1;fontColor=#FFFFFF;" vertex="1" parent="1">
                    <mxGeometry x="515" y="595" width="100" height="20" as="geometry"/>
                </mxCell>
                <mxCell id="21" value="合并自定义指令" style="text;html=1;align=center;verticalAlign=middle;resizable=0;points=[];autosize=1;fontColor=#FFFFFF;" vertex="1" parent="1">
                    <mxGeometry x="437" y="680" width="100" height="20" as="geometry"/>
                </mxCell>
                <mxCell id="25" value="parse 解析html 模板" style="text;html=1;align=center;verticalAlign=middle;resizable=0;points=[];autosize=1;fontColor=#FFFFFF;" vertex="1" parent="1">
                    <mxGeometry x="966" y="645" width="120" height="20" as="geometry"/>
                </mxCell>
                <mxCell id="26" value="&lt;div style=&quot;color: rgb(212 , 212 , 212) ; background-color: rgb(30 , 30 , 30) ; font-family: &amp;#34;menlo&amp;#34; , &amp;#34;monaco&amp;#34; , &amp;#34;courier new&amp;#34; , monospace ; font-size: 14px ; line-height: 21px&quot;&gt;&lt;span style=&quot;color: #dcdcaa&quot;&gt;generate 生成抽象语法树&lt;/span&gt;&lt;/div&gt;" style="text;html=1;align=center;verticalAlign=middle;resizable=0;points=[];autosize=1;fontColor=#FFFFFF;" vertex="1" parent="1">
                    <mxGeometry x="966" y="670" width="190" height="30" as="geometry"/>
                </mxCell>
            </root>
        </mxGraphModel>
    </diagram>
</mxfile>
